<svg xmlns="http://www.w3.org/2000/svg" width="1280" height="720" viewBox="0 0 1280 720" role="img" aria-label="WorldPeace DAO architecture">
  <rect width="1280" height="720" fill="#0b1020"/>
  <text x="72" y="96" fill="#f8fafc" font-family="Arial, sans-serif" font-size="42" font-weight="700">WorldPeace DAO</text>
  <text x="72" y="140" fill="#94a3b8" font-family="Arial, sans-serif" font-size="22">On-chain charity DApp and governance product surface</text>
  <g font-family="Arial, sans-serif" font-size="18" font-weight="600">
    <rect x="72" y="286" width="150" height="76" rx="16" fill="#111827" stroke="#38bdf8"/>
    <text x="112" y="331" fill="#e0f2fe">Visitor</text>
    <rect x="280" y="268" width="210" height="112" rx="18" fill="#111827" stroke="#818cf8"/>
    <text x="325" y="318" fill="#e0e7ff">WorldPeace</text>
    <text x="347" y="346" fill="#e0e7ff">DApp</text>
    <rect x="560" y="180" width="190" height="70" rx="14" fill="#111827" stroke="#34d399"/>
    <text x="595" y="223" fill="#dcfce7">Wallet</text>
    <rect x="560" y="278" width="190" height="70" rx="14" fill="#111827" stroke="#fbbf24"/>
    <text x="594" y="321" fill="#fef3c7">Governance</text>
    <rect x="560" y="376" width="190" height="70" rx="14" fill="#111827" stroke="#fb7185"/>
    <text x="604" y="419" fill="#ffe4e6">Treasury</text>
    <rect x="830" y="150" width="190" height="70" rx="14" fill="#111827" stroke="#a78bfa"/>
    <text x="872" y="193" fill="#ede9fe">Charity DEX</text>
    <rect x="830" y="250" width="190" height="70" rx="14" fill="#111827" stroke="#22d3ee"/>
    <text x="875" y="293" fill="#cffafe">Guild / Chat</text>
    <rect x="830" y="350" width="190" height="70" rx="14" fill="#111827" stroke="#f97316"/>
    <text x="872" y="393" fill="#ffedd5">Whitepaper</text>
    <rect x="830" y="450" width="190" height="70" rx="14" fill="#111827" stroke="#84cc16"/>
    <text x="866" y="493" fill="#ecfccb">Unity WebGL</text>
    <rect x="1080" y="278" width="150" height="90" rx="16" fill="#111827" stroke="#38bdf8"/>
    <text x="1127" y="313" fill="#e0f2fe">BSC /</text>
    <text x="1106" y="342" fill="#e0f2fe">BNB Chain</text>
  </g>
  <g stroke="#475569" stroke-width="4" fill="none">
    <path d="M222 324 H280"/>
    <path d="M490 324 C525 324 525 215 560 215"/>
    <path d="M490 324 H560"/>
    <path d="M490 324 C525 324 525 411 560 411"/>
    <path d="M750 215 H1080"/>
    <path d="M750 313 C900 313 930 323 1080 323"/>
    <path d="M750 411 C900 411 930 333 1080 333"/>
    <path d="M750 313 C790 313 790 185 830 185"/>
    <path d="M750 313 H830"/>
    <path d="M750 313 C790 313 790 385 830 385"/>
    <path d="M750 313 C790 313 790 485 830 485"/>
  </g>
  <text x="72" y="626" fill="#94a3b8" font-family="Arial, sans-serif" font-size="18">Public showcase only: no custody claim, no donation volume claim, no TVL claim.</text>
</svg>
